<svg width="1395" height="351" viewBox="0 0 1395 351" fill="none" xmlns="http://www.w3.org/2000/svg">
<path d="M310.7 253.4V254.9C310.7 257.1 309.5 259 307.7 260.1L236.1 301.6L211.1 316.1C189.1 302.2 166.1 287.7 142 272.5C140 271.2 138.5 269.5 137.5 267.3C136.9 266 136.6 264.5 136.6 263.1L138.2 225.4L139 205.9L139.9 184.7C139.9 184 139.8 183.6 139.5 183.4C139.2 183.2 138.7 183.2 138.1 183.4C137.9 183.4 137.8 183.5 137.6 183.6C128.9 187.2 121.5 191.9 115.5 197.6C114.9 198.2 114.2 198.8 113.6 199.4C109.8 203.4 106.5 207.8 103.9 212.7C87.7 242.6 97.8 278.7 126 296.5C145.7 309 164.5 320.9 182.5 332.4L168.6 340.4C166.7 341.5 164.3 341.5 162.4 340.4L76.2 290.7C73.5 266.8 70.8 242 68 216.1C67.7 213.7 68.2 211.5 69.2 209.3C69.9 208 70.8 206.9 72 206L90.5 192.5L108.2 179.5L116.8 173.2L119.8 171L135.3 159.7C135.4 159.7 135.5 159.5 135.6 159.4C135.8 159.2 135.9 159 136 158.8C136.1 158.4 135.8 157.9 135.1 157.6C128 153.6 120.9 150.9 113.8 149.5C106.1 147.9 98.5 147.8 90.8 149.2C66.4 153.5 48.2 170.8 41.5 192.7C39 200.9 38.1 209.7 39.1 218.7C41.1 237.3 43 255.2 44.9 272.5L23.2 260C21.4 258.9 20.2 256.9 20.3 254.8V196.9V168.7C35 154.1 50.2 139 65.9 123.3C67.6 121.6 69.6 120.5 72 120C73.5 119.7 74.9 119.7 76.3 120.1L125.5 133.6L151.9 140.8C152.4 140.9 152.8 141 153 140.8C153 140.8 153.1 140.8 153.2 140.7C153.4 140.4 153.5 140 153.4 139.4C152.9 136.3 152.2 133.3 151.4 130.5C150.4 126.9 149.1 123.4 147.6 120.2C143.9 112.2 138.8 105.3 132.3 99.5999C114.4 83.8999 90.7 80.0999 70 87.2999C61.1 90.3999 52.8 95.4999 45.7 102.5C37 111.1 28.5 119.6 20.1 127.8V94.6999C20.1 92.5999 21.2 90.5999 23 89.4999L54.5 71.2999L78.9 57.1999C97.6 59.3999 116.9 61.5999 136.9 63.8999C139.3 64.1999 141.4 65.0999 143.2 66.5999C144.3 67.4999 145.2 68.6999 145.8 69.9999L166.2 117.5L167.8 121.3L169.2 124.6L173.5 134.5L176.4 141.2L176.8 142.1C176.8 142.3 177 142.5 177.1 142.6C177.2 142.8 177.3 142.9 177.4 143C177.8 143.2 178.3 143 178.8 142.4C180.9 140.1 182.8 137.8 184.5 135.4C187.2 131.6 189.5 127.7 191.3 123.8C194.5 116.8 196.4 109.4 196.8 101.8C196.8 101.6 196.8 101.4 196.8 101.1C198.5 67.0999 173.6 38.9999 140.6 35.1999C134 34.3999 127.4 33.6999 120.9 32.8999L162 9.0999C163.8 7.9999 166.1 7.9999 168 9.0999L189.5 21.4999C201.7 40.9999 214.4 61.2999 227.6 82.3999C228.9 84.3999 229.5 86.6999 229.5 88.9999C229.5 90.4999 229.1 91.8999 228.4 93.1999L206.1 134.8L205.8 135.4L200.3 145.7L191.4 162.4C191.3 162.6 191.2 162.8 191.1 163C190.9 163.8 191.3 164.2 192.4 164.3C202.7 164.9 212.1 163.7 220.6 160.7C226.1 158.8 231.2 156.1 236 152.6C246.3 145.2 253.6 135.4 257.9 124.6C265.1 106.4 263.5 85.2999 252.5 67.4999C249.3 62.3999 246.2 57.3999 243.1 52.3999L298.3 84.2999C295.4 92.5999 292.4 101 289.4 109.6C283.1 127.5 276.6 146 269.9 165C269.1 167.3 267.7 169.1 265.9 170.6C264.7 171.5 263.4 172.1 262 172.4L222.3 179.7L184.9 186.6C183.6 186.8 183.3 187.5 184.1 188.6C191.3 198.8 199.7 206.4 209.6 211.2C213.1 212.9 216.7 214.3 220.4 215.4C253.1 224.6 286 206.6 297.2 175.2C301.7 162.5 306.1 150.1 310.4 138.1V222.2C285.4 230.9 259.2 240 231.8 249.5C229.5 250.3 227.2 250.4 224.9 249.8C223.5 249.4 222.2 248.8 221.1 247.8L194.1 224.3L161.9 196.3C160.9 195.4 160.2 195.6 159.8 196.9C158 202.9 157 208.7 156.7 214.3C156.4 220.2 156.8 225.9 158.1 231.5C158.9 235.1 160 238.5 161.5 242C172.6 268.2 198.5 282.6 225 280.3C230.3 279.9 235.5 278.8 240.7 277C265 268.6 288.3 260.6 310.5 253.1L310.7 253.4Z" fill="url(#paint0_linear_740_709)"/>
<path d="M524.4 90.8999V262.7H496.7L410.3 151.1V262.7H376.6V90.8999H404.4L490.7 202.3V90.8999H524.4Z" fill="white"/>
<path d="M605.1 266.2C585.9 266.2 570.1 260 557.5 247.4C544.9 234.8 538.7 219.2 538.7 200.6C538.7 182 545 166.3 557.6 153.9C570.2 141.4 586 135.2 605.2 135.2C624.4 135.2 640.2 141.4 652.8 153.9C665.4 166.4 671.6 181.9 671.6 200.6C671.6 219.3 665.4 234.9 652.8 247.4C640.2 260 624.4 266.2 605.4 266.2H605.2H605.1ZM630.3 226.5C636.8 219.7 640 211 640 200.6C640 190.2 636.8 181.6 630.3 174.7C623.8 167.9 615.4 164.5 605.1 164.5C594.8 164.5 586.4 167.9 579.9 174.7C573.4 181.5 570.2 190.2 570.2 200.6C570.2 211 573.4 219.6 579.9 226.5C586.4 233.3 594.8 236.7 605.1 236.7C615.4 236.7 623.8 233.3 630.3 226.5Z" fill="white"/>
<path d="M834.5 135C849.5 135 861.5 139.7 870.3 149.1C879.2 158.6 883.6 171.7 883.6 188.8V262.6H851.1V195.6C851.1 175.4 843.2 165.2 827.4 165.2C811.6 165.2 812.4 168.2 807.9 174.2C803.3 180.2 801.1 188.6 801.1 199.5V262.8H768.4V195.8C768.4 175.6 760.6 165.4 745.2 165.4C729.8 165.4 729.9 168.5 725.3 174.6C720.7 180.7 718.5 189.3 718.5 200.5V262.8H686.2V138.7H718.5V153.4C727.8 141.3 740.2 135.2 755.4 135.2C770.6 135.2 784.8 141.4 792.8 153.9C802.6 141.4 816.6 135.2 834.7 135.2H834.6L834.5 135Z" fill="white"/>
<path d="M958.2 266.3C940.8 266.3 926.3 260.1 914.6 247.5C902.9 234.9 897 219.3 897 200.8C897 182.3 902.9 166.3 914.6 153.8C926.3 141.3 941 135.1 958.3 135.1C975.6 135.1 988.6 141.2 998.2 153.5V138.5H1030.9V262.6H998.2V247.4C988.6 259.9 975.3 266.1 958.3 266.1H958.2V266.3ZM963.8 237.1C973.7 237.1 982.1 233.6 989 226.7C995.8 219.8 999.2 211 999.2 200.3C999.2 189.6 995.8 181.3 989 174.4C982.2 167.6 973.8 164.1 963.8 164.1C953.8 164.1 945.2 167.5 938.6 174.3C932 181.1 928.8 189.9 928.8 200.5C928.8 211.1 932 220.1 938.6 227C945.2 233.8 953.6 237.3 963.8 237.3V237.1Z" fill="white"/>
<path d="M1179.1 83.7V262.8H1146.4V247.6C1136.7 260.1 1123.4 266.3 1106.5 266.3C1089.6 266.3 1074.6 260.1 1062.9 247.5C1051.2 234.9 1045.3 219.3 1045.3 200.8C1045.3 182.3 1051.2 166.3 1062.9 153.8C1074.6 141.3 1089.3 135.1 1106.6 135.1C1123.9 135.1 1136.9 141.2 1146.5 153.5V83.5H1179.1V83.7ZM1112.1 237.1C1122 237.1 1130.4 233.6 1137.3 226.7C1144.1 219.8 1147.5 211 1147.5 200.3C1147.5 189.6 1144.1 181.3 1137.3 174.4C1130.5 167.6 1122.1 164.1 1112.1 164.1C1102.1 164.1 1093.5 167.5 1086.9 174.3C1080.3 181.1 1077.1 189.9 1077.1 200.5C1077.1 211.1 1080.3 220.1 1086.9 227C1093.5 233.8 1101.9 237.3 1112.1 237.3V237.1Z" fill="white"/>
<path d="M1217.5 121.4C1212.1 121.4 1207.6 119.6 1203.8 115.9C1200.1 112.2 1198.2 107.6 1198.2 102.2C1198.2 96.8 1200.1 92.5 1203.8 88.9C1207.5 85.3 1212.1 83.5 1217.5 83.5C1222.9 83.5 1227.4 85.3 1231.2 88.9C1234.9 92.5 1236.8 96.9 1236.8 102.2C1236.8 107.5 1234.9 112.1 1231.2 115.7C1227.5 119.3 1222.9 121.1 1217.5 121.1V121.3V121.4ZM1200.7 138.8H1233.3V262.9H1200.7V138.8Z" fill="white"/>
<path d="M1313.8 266.5C1294.8 266.5 1279.1 260.2 1266.6 247.6C1254.1 235 1247.9 219.3 1247.9 200.6C1247.9 181.9 1254.1 166.3 1266.6 153.9C1279.1 141.4 1294.8 135.2 1313.6 135.2C1332.4 135.2 1343 139.4 1353.9 147.8C1364.8 156.2 1371.6 165.5 1374.4 176L1344.2 184.6C1342.8 179 1339.3 174.2 1333.8 170.1C1328.3 166 1321.7 164 1313.9 164C1306.1 164 1295.8 167.6 1289.6 174.7C1283.4 181.8 1280.3 190.4 1280.3 200.6C1280.3 210.8 1283.4 219.2 1289.8 226.5C1296.1 233.8 1304.3 237.4 1314.2 237.4C1324.1 237.4 1328.5 235.5 1334.1 231.5C1339.7 227.5 1343.2 222.9 1344.6 217.5L1374.8 225.9C1372 236.6 1365.3 245.9 1354.6 254.1C1343.8 262.2 1330.5 266.3 1314.6 266.3L1314 266.7L1313.8 266.5Z" fill="white"/>
<path style="mix-blend-mode:soft-light" d="M45 272.9L23.3 260.4C21.5 259.3 20.3 257.3 20.4 255.2V213.7L38.9 208.8C38.7 212.2 38.9 215.6 39.2 219.1C41.2 237.7 43.1 255.6 45 272.9Z" fill="url(#paint1_linear_740_709)"/>
<path style="mix-blend-mode:soft-light" d="M182.5 332.7L168.6 340.7C166.7 341.8 164.3 341.8 162.4 340.7L76.2 291C73.5 267.1 70.8 242.3 68 216.4C67.7 214 68.2 211.8 69.2 209.6C69.9 208.3 70.8 207.2 72 206.3L73.2 205.4L103.7 213.1C87.6 242.9 97.8 278.9 125.9 296.7C145.6 309.2 164.4 321.1 182.4 332.6L182.5 332.7Z" fill="url(#paint2_linear_740_709)"/>
<path style="mix-blend-mode:soft-light" d="M236.1 301.7L211.1 316.2C189.1 302.3 166.1 287.8 142 272.6C140 271.3 138.5 269.6 137.5 267.4C136.9 266.1 136.6 264.6 136.6 263.2L138.2 225.5L139 206C145.1 208.6 151.1 211.5 156.8 214.7C156.5 220.6 156.9 226.3 158.2 231.9C159 235.5 160.1 238.9 161.6 242.4C172.7 268.6 198.6 283 225.1 280.7C229.2 287.4 232.8 294.4 236 301.7H236.1Z" fill="url(#paint3_linear_740_709)"/>
<path style="mix-blend-mode:soft-light" d="M173.7 134.7C166.2 133.8 158.8 132.5 151.5 130.8C150.5 127.2 149.2 123.7 147.7 120.5C144 112.5 138.9 105.6 132.4 99.9C121.1 89.9 107.4 84.7 93.6 84.1L71.7 61.7L79 57.5C97.7 59.7 117 61.9 137 64.2C139.4 64.5 141.5 65.4 143.3 66.9C144.4 67.8 145.3 69 145.9 70.3L166.3 117.8L167.9 121.6L169.3 124.9L173.6 134.8L173.7 134.7Z" fill="url(#paint4_linear_740_709)"/>
<path style="mix-blend-mode:soft-light" d="M229.8 89.2001C229.8 90.7001 229.4 92.1001 228.7 93.4001L206.4 135L206.1 135.6C202.4 135.8 198.6 135.9 194.8 135.9C191 135.9 188 135.9 184.7 135.6C187.4 131.8 189.7 127.9 191.5 124C194.7 117 196.6 109.6 197 102C197 101.8 197 101.6 197 101.3C198.7 67.3001 173.8 39.2001 140.8 35.4001C134.2 34.6001 127.6 33.9001 121.1 33.1001L162.2 9.3001C164 8.2001 166.3 8.2001 168.2 9.3001L189.7 21.7001C201.9 41.2001 214.6 61.5001 227.8 82.6001C229.1 84.6001 229.7 86.9001 229.7 89.2001H229.8Z" fill="url(#paint5_linear_740_709)"/>
<path style="mix-blend-mode:soft-light" d="M298.7 84.5001C295.8 92.8001 292.8 101.2 289.8 109.8C279.9 115.7 269.4 120.8 258.3 124.8C265.5 106.6 263.9 85.5001 252.9 67.7001C249.7 62.6001 246.6 57.6001 243.5 52.6001L298.7 84.5001Z" fill="url(#paint6_linear_740_709)"/>
<path style="mix-blend-mode:soft-light" d="M184.3 188.8C191.5 199 199.9 206.6 209.8 211.4C205.5 216.7 200.2 221.2 194.3 224.6L162.1 196.6C161.1 195.7 160.4 195.9 160 197.2C158.2 203.2 157.2 209 156.9 214.6C156.6 220.5 157 226.2 158.3 231.8C151.1 230.9 144.4 228.7 138.3 225.4L139.1 205.9L140 184.7C140 184 139.9 183.6 139.6 183.4C139.3 183.2 138.8 183.2 138.2 183.4C138 183.4 137.9 183.5 137.7 183.6C129 187.2 121.6 191.9 115.6 197.6C115 198.2 114.3 198.8 113.7 199.4C113.3 198.5 112.9 197.7 112.5 196.8C110.3 191.5 108.8 185.7 108.3 179.7L116.9 173.4L119.9 171.2L135.4 159.9C135.5 159.9 135.6 159.7 135.7 159.6C135.9 159.4 136 159.2 136.1 159C136.2 158.6 135.9 158.1 135.2 157.8C128.1 153.8 121 151.1 113.9 149.7C116.8 143.8 120.7 138.4 125.4 133.9L151.8 141.1C152.3 141.2 152.7 141.3 152.9 141.1C152.9 141.1 153 141.1 153.1 141C153.3 140.7 153.4 140.3 153.3 139.7C152.8 136.6 152.1 133.6 151.3 130.8C150.3 127.2 149 123.7 147.5 120.5C153.1 118.7 159 117.7 165.2 117.7C171.4 117.7 165.8 117.7 166.1 117.7L167.7 121.5L169.1 124.8L173.4 134.7L176.3 141.4L176.7 142.3C176.7 142.5 176.9 142.7 177 142.8C177.1 143 177.2 143.1 177.3 143.2C177.7 143.4 178.2 143.2 178.7 142.6C180.8 140.3 182.7 138 184.4 135.6C187.1 131.8 189.4 127.9 191.2 124C196.7 126.8 201.8 130.6 206.1 135L205.8 135.6L200.3 145.9L191.4 162.6C191.3 162.8 191.2 163 191.1 163.2C190.9 164 191.3 164.4 192.4 164.5C202.7 165.1 212.1 163.9 220.6 160.9C221.8 165.4 222.4 170.2 222.4 175.1C222.4 180 222.4 178.3 222.2 179.9L184.8 186.8C183.5 187 183.2 187.7 184 188.8H184.3Z" fill="url(#paint7_linear_740_709)"/>
<defs>
<linearGradient id="paint0_linear_740_709" x1="165.5" y1="32.8999" x2="165.5" y2="253.7" gradientUnits="userSpaceOnUse">
<stop stop-color="#27E6D6"/>
<stop offset="1" stop-color="#3E48CC"/>
</linearGradient>
<linearGradient id="paint1_linear_740_709" x1="32.7" y1="213.5" x2="32.7" y2="256" gradientUnits="userSpaceOnUse">
<stop stop-color="#27E6D6"/>
<stop offset="1" stop-color="#3E48CC"/>
</linearGradient>
<linearGradient id="paint2_linear_740_709" x1="125.3" y1="215.5" x2="125.3" y2="305.7" gradientUnits="userSpaceOnUse">
<stop stop-color="#27E6D6"/>
<stop offset="1" stop-color="#3E48CC"/>
</linearGradient>
<linearGradient id="paint3_linear_740_709" x1="186.4" y1="214.1" x2="186.4" y2="287.1" gradientUnits="userSpaceOnUse">
<stop stop-color="#27E6D6"/>
<stop offset="1" stop-color="#3E48CC"/>
</linearGradient>
<linearGradient id="paint4_linear_740_709" x1="122.7" y1="63.1" x2="122.7" y2="114.3" gradientUnits="userSpaceOnUse">
<stop stop-color="#27E6D6"/>
<stop offset="1" stop-color="#3E48CC"/>
</linearGradient>
<linearGradient id="paint5_linear_740_709" x1="175.5" y1="17.8001" x2="175.5" y2="102.3" gradientUnits="userSpaceOnUse">
<stop stop-color="#27E6D6"/>
<stop offset="1" stop-color="#3E48CC"/>
</linearGradient>
<linearGradient id="paint6_linear_740_709" x1="271.1" y1="57.9001" x2="271.1" y2="105.7" gradientUnits="userSpaceOnUse">
<stop stop-color="#27E6D6"/>
<stop offset="1" stop-color="#3E48CC"/>
</linearGradient>
<linearGradient id="paint7_linear_740_709" x1="165.6" y1="126.1" x2="165.6" y2="201.8" gradientUnits="userSpaceOnUse">
<stop stop-color="#27E6D6"/>
<stop offset="1" stop-color="#3E48CC"/>
</linearGradient>
</defs>
</svg>
