<?xml version="1.0" encoding="UTF-8"?>
<svg id="Layer_1" data-name="Layer 1" xmlns="http://www.w3.org/2000/svg" version="1.1" xmlns:xlink="http://www.w3.org/1999/xlink" viewBox="0 0 1403.3 355.7">
  <defs>
    <style>
      .cls-1 {
        fill: url(#linear-gradient);
      }

      .cls-1, .cls-2 {
        stroke-width: 0px;
      }

      .cls-2 {
        fill: #180a3e;
      }
    </style>
    <linearGradient id="linear-gradient" x1="179.7" y1="38.4" x2="179.7" y2="255" gradientUnits="userSpaceOnUse">
      <stop offset="0" stop-color="#27e6d6"/>
      <stop offset="1" stop-color="#3e48cc"/>
    </linearGradient>
  </defs>
  <path class="cls-1" d="M253.7,278.2c-30.9,10.7-64.8-3.6-77.8-34.3-5.8-13.6-6.3-28.4-1.6-44.2.4-1.3,1.1-1.5,2.1-.6l58,50.5c1.1.9,2.3,1.6,3.8,1.9,2.3.5,4.5.4,6.8-.3,26.9-9.3,52.6-18.3,77.2-26.8v-82.5c-4.3,11.8-8.6,24-13,36.4-10.9,30.8-43.2,48.4-75.3,39.4-14.2-4-26.1-12.7-35.6-26.3-.8-1.1-.5-1.7.8-2l75.7-13.9c1.4-.3,2.7-.8,3.9-1.7,1.8-1.4,3.2-3.3,4-5.5,9.8-27.7,19.1-54,27.9-79.2l-54.2-31.3c3,4.9,6.1,9.8,9.2,14.8,17.3,27.7,10.9,64-16.2,83.5-12,8.7-26.2,12.5-42.8,11.4-1.3,0-1.7-.7-1-1.9l36.3-67.8c.7-1.3,1-2.6,1-4.1,0-2.3-.6-4.5-1.8-6.5-12.9-20.7-25.4-40.6-37.4-59.8l-21.1-12.2c-1.8-1-4.1-1-5.9,0l-40.4,23.3c6.4.7,12.8,1.5,19.3,2.3,32.5,3.8,56.8,31.4,55.2,64.7-.7,14.8-6.6,28.3-17.7,40.6-.9,1-1.6.9-2.1-.3l-30.4-70.7c-.6-1.3-1.4-2.4-2.5-3.4-1.8-1.5-3.9-2.4-6.2-2.6-19.6-2.3-38.5-4.4-56.9-6.6l-54.8,31.7c-1.8,1.1-2.9,3.1-2.9,5.1v32.4c8.2-8.1,16.6-16.4,25.1-24.9,23.2-23,59.9-24.9,85-2.8,11.1,9.8,18,22.8,20.7,39.1.2,1.3-.3,1.8-1.6,1.4l-74.2-20.3c-1.4-.4-2.8-.4-4.2-.1-2.3.5-4.3,1.6-6,3.2-15.5,15.4-30.3,30.2-44.7,44.5v84.5c0,2.1,1.2,4.1,3,5.1l21.3,12.3c-1.8-17-3.7-34.6-5.7-52.8-3.5-32.5,17.9-62.4,50.8-68.2,14.5-2.6,29,.2,43.5,8.2,1.2.6,1.2,1.4.1,2.1l-62.1,45.4c-1.2.8-2.1,1.9-2.7,3.2-1,2.1-1.4,4.3-1.2,6.7,2.8,25.4,5.5,49.7,8.1,73.1l84.5,48.8c1.8,1.1,4.2,1.1,6,0l13.6-7.9c-17.7-11.3-36.1-23-55.4-35.3-27.6-17.5-37.6-52.9-21.7-82.2,7-13,18.2-22.6,33.6-28.9,1.2-.5,1.8-.1,1.8,1.2l-3.3,76.9c0,1.4.2,2.8.8,4.1,1,2.1,2.5,3.8,4.5,5.1,23.6,14.9,46.1,29.2,67.7,42.8l94.8-55c1.8-1.1,2.9-3,2.9-5.1v-1.5c-21.8,7.4-44.6,15.2-68.4,23.5Z"/>
  <g>
    <path class="cls-2" d="M531.9,95.3v168.5h-27.2l-84.7-109.5v109.5h-33V95.3h27.3l84.6,109.3v-109.3h33Z"/>
    <path class="cls-2" d="M611.1,267.3c-18.8,0-34.3-6.1-46.7-18.5-12.3-12.3-18.5-27.6-18.5-46s6.2-33.6,18.6-45.8c12.3-12.2,27.9-18.3,46.7-18.3s34.3,6.1,46.7,18.3c12.3,12.2,18.5,27.5,18.5,45.8s-6.1,33.6-18.5,46c-12.3,12.3-27.9,18.5-46.5,18.5h-.2ZM635.8,228.4c6.3-6.7,9.5-15.2,9.5-25.4s-3.2-18.7-9.5-25.4c-6.3-6.7-14.6-10-24.7-10s-18.3,3.3-24.7,10c-6.3,6.7-9.5,15.2-9.5,25.4s3.2,18.7,9.5,25.4c6.3,6.7,14.6,10,24.7,10s18.3-3.3,24.7-10Z"/>
    <path class="cls-2" d="M836.1,138.6c14.7,0,26.4,4.6,35.1,13.9,8.7,9.3,13,22.2,13,38.9v72.4h-31.9v-65.7c0-19.9-7.8-29.9-23.3-29.9s-14.7,2.9-19.2,8.8c-4.5,5.9-6.7,14.1-6.7,24.8v62.1h-32.1v-65.7c0-19.9-7.6-29.9-22.8-29.9s-15,3.1-19.5,9.1c-4.5,6-6.7,14.5-6.7,25.4v61.1h-31.7v-121.8h31.7v14.5c9.2-11.9,21.3-17.9,36.2-17.9s28.8,6.1,36.7,18.3c9.6-12.2,23.4-18.3,41.1-18.3h-.1Z"/>
    <path class="cls-2" d="M957.4,267.4c-17,0-31.3-6.1-42.8-18.5-11.5-12.3-17.3-27.6-17.3-45.8s5.8-33.9,17.3-46.1c11.5-12.2,25.9-18.3,42.9-18.3s29.7,6,39.1,18.1v-14.7h32.1v121.8h-32.1v-14.9c-9.4,12.2-22.4,18.3-39.1,18.3h-.1ZM963,238.7c9.8,0,18-3.4,24.7-10.2,6.7-6.8,10-15.4,10-25.9s-3.3-18.7-10-25.4c-6.7-6.7-14.9-10.1-24.7-10.1s-18.2,3.3-24.7,10c-6.5,6.7-9.6,15.3-9.6,25.7s3.2,19.3,9.6,26c6.5,6.7,14.7,10.1,24.7,10.1v-.2Z"/>
    <path class="cls-2" d="M1174.2,88.3v175.7h-32.1v-14.9c-9.5,12.2-22.6,18.3-39.1,18.3s-31.3-6.1-42.8-18.5c-11.5-12.3-17.3-27.6-17.3-45.8s5.8-33.9,17.3-46.1c11.5-12.2,25.9-18.3,42.9-18.3s29.7,6,39.1,18.1v-68.6h32ZM1108.5,238.7c9.8,0,18-3.4,24.7-10.2,6.7-6.8,10-15.4,10-25.9s-3.3-18.7-10-25.4c-6.7-6.7-14.9-10.1-24.7-10.1s-18.2,3.3-24.7,10c-6.5,6.7-9.6,15.3-9.6,25.7s3.2,19.3,9.6,26c6.5,6.7,14.7,10.1,24.7,10.1v-.2Z"/>
    <path class="cls-2" d="M1211.9,125.2c-5.3,0-9.8-1.8-13.4-5.4-3.6-3.6-5.5-8.1-5.5-13.4s1.9-9.5,5.5-13c3.6-3.5,8.1-5.3,13.4-5.3s9.8,1.8,13.4,5.3,5.5,7.9,5.5,13-1.9,9.8-5.5,13.3-8.1,5.3-13.4,5.3v.2ZM1195.4,142.3h32v121.8h-32v-121.8Z"/>
    <path class="cls-2" d="M1306.4,267.6c-18.7,0-34.1-6.2-46.3-18.6-12.2-12.3-18.3-27.7-18.3-46.1s6.1-33.6,18.3-45.8c12.2-12.2,27.6-18.3,46.1-18.3s28.8,4.1,39.5,12.3,17.4,17.4,20.1,27.6l-29.6,8.5c-1.4-5.5-4.8-10.2-10.2-14.2-5.4-4-11.9-6-19.5-6s-17.7,3.5-23.9,10.5c-6.1,6.9-9.2,15.4-9.2,25.4s3.1,18.2,9.3,25.4c6.2,7.2,14.2,10.7,24,10.7s14-1.9,19.5-5.8c5.5-3.9,8.9-8.5,10.3-13.8l29.6,8.2c-2.7,10.5-9.3,19.6-19.9,27.6-10.6,8-23.6,12-39.3,12l-.6.4Z"/>
  </g>
</svg>