<svg width="334" height="334" viewBox="0 0 334 334" fill="none" xmlns="http://www.w3.org/2000/svg">
<path d="M312.6 245.125V246.625C312.6 248.825 311.4 250.725 309.6 251.825L238 293.325L213 307.825C191 293.925 168 279.425 143.9 264.225C141.9 262.925 140.4 261.225 139.4 259.025C138.8 257.725 138.5 256.225 138.5 254.825L140.1 217.125L140.9 197.625L141.8 176.425C141.8 175.725 141.7 175.325 141.4 175.125C141.1 174.925 140.6 174.925 140 175.125C139.8 175.125 139.7 175.225 139.5 175.325C130.8 178.925 123.4 183.625 117.4 189.325C116.8 189.925 116.1 190.525 115.5 191.125C111.7 195.125 108.4 199.525 105.8 204.425C89.6 234.325 99.7 270.425 127.9 288.225C147.6 300.725 166.4 312.625 184.4 324.125L170.5 332.125C168.6 333.225 166.2 333.225 164.3 332.125L78.1 282.425C75.4 258.525 72.7 233.725 69.9 207.825C69.6 205.425 70.1 203.225 71.1 201.025C71.8 199.725 72.7 198.625 73.9 197.725L92.4 184.225L110.1 171.225L118.7 164.925L121.7 162.725L137.2 151.425C137.3 151.425 137.4 151.225 137.5 151.125C137.7 150.925 137.8 150.725 137.9 150.525C138 150.125 137.7 149.625 137 149.325C129.9 145.325 122.8 142.625 115.7 141.225C108 139.625 100.4 139.525 92.7 140.925C68.3 145.225 50.1 162.525 43.4 184.425C40.9 192.625 40 201.425 41 210.425C43 229.025 44.9 246.925 46.8 264.225L25.1 251.725C23.3 250.625 22.1 248.625 22.2 246.525V188.625V160.425C36.9 145.825 52.1 130.725 67.8 115.025C69.5 113.325 71.5 112.225 73.9 111.725C75.4 111.425 76.8 111.425 78.2 111.825L127.4 125.325L153.8 132.525C154.3 132.625 154.7 132.725 154.9 132.525C154.9 132.525 155 132.525 155.1 132.425C155.3 132.125 155.4 131.725 155.3 131.125C154.8 128.025 154.1 125.025 153.3 122.225C152.3 118.625 151 115.125 149.5 111.925C145.8 103.925 140.7 97.025 134.2 91.325C116.3 75.625 92.6 71.825 71.9 79.025C63 82.125 54.7 87.225 47.6 94.225C38.9 102.825 30.4 111.325 22 119.525V86.425C22 84.325 23.1 82.325 24.9 81.225L56.4 63.025L80.8 48.925C99.5 51.125 118.8 53.325 138.8 55.625C141.2 55.925 143.3 56.825 145.1 58.325C146.2 59.225 147.1 60.425 147.7 61.725L168.1 109.225L169.7 113.025L171.1 116.325L175.4 126.225L178.3 132.925L178.7 133.825C178.7 134.025 178.9 134.225 179 134.325C179.1 134.525 179.2 134.625 179.3 134.725C179.7 134.925 180.2 134.725 180.7 134.125C182.8 131.825 184.7 129.525 186.4 127.125C189.1 123.325 191.4 119.425 193.2 115.525C196.4 108.525 198.3 101.125 198.7 93.525C198.7 93.325 198.7 93.125 198.7 92.825C200.4 58.825 175.5 30.725 142.5 26.925C135.9 26.125 129.3 25.425 122.8 24.625L163.9 0.825C165.7 -0.275 168 -0.275 169.9 0.825L191.4 13.225C203.6 32.725 216.3 53.025 229.5 74.125C230.8 76.125 231.4 78.425 231.4 80.725C231.4 82.225 231 83.625 230.3 84.925L208 126.525L207.7 127.125L202.2 137.425L193.3 154.125C193.2 154.325 193.1 154.525 193 154.725C192.8 155.525 193.2 155.925 194.3 156.025C204.6 156.625 214 155.425 222.5 152.425C228 150.525 233.1 147.825 237.9 144.325C248.2 136.925 255.5 127.125 259.8 116.325C267 98.125 265.4 77.025 254.4 59.225C251.2 54.125 248.1 49.125 245 44.125L300.2 76.025C297.3 84.325 294.3 92.725 291.3 101.325C285 119.225 278.5 137.725 271.8 156.725C271 159.025 269.6 160.825 267.8 162.325C266.6 163.225 265.3 163.825 263.9 164.125L224.2 171.425L186.8 178.325C185.5 178.525 185.2 179.225 186 180.325C193.2 190.525 201.6 198.125 211.5 202.925C215 204.625 218.6 206.025 222.3 207.125C255 216.325 287.9 198.325 299.1 166.925C303.6 154.225 308 141.825 312.3 129.825V213.925C287.3 222.625 261.1 231.725 233.7 241.225C231.4 242.025 229.1 242.125 226.8 241.525C225.4 241.125 224.1 240.525 223 239.525L196 216.025L163.8 188.025C162.8 187.125 162.1 187.325 161.7 188.625C159.9 194.625 158.9 200.425 158.6 206.025C158.3 211.925 158.7 217.625 160 223.225C160.8 226.825 161.9 230.225 163.4 233.725C174.5 259.925 200.4 274.325 226.9 272.025C232.2 271.625 237.4 270.525 242.6 268.725C266.9 260.325 290.2 252.325 312.4 244.825L312.6 245.125Z" fill="url(#paint0_linear_808_272)"/>
<path style="mix-blend-mode:soft-light" d="M46.9 264.625L25.2 252.125C23.4 251.025 22.2 249.025 22.3 246.925V205.425L40.8 200.525C40.6 203.925 40.8 207.325 41.1 210.825C43.1 229.425 45 247.325 46.9 264.625Z" fill="url(#paint1_linear_808_272)"/>
<path style="mix-blend-mode:soft-light" d="M184.4 324.425L170.5 332.425C168.6 333.525 166.2 333.525 164.3 332.425L78.1 282.725C75.4 258.825 72.7 234.025 69.9 208.125C69.6 205.725 70.1 203.525 71.1 201.325C71.8 200.025 72.7 198.925 73.9 198.025L75.1 197.125L105.6 204.825C89.5 234.625 99.7 270.625 127.8 288.425C147.5 300.925 166.3 312.825 184.3 324.325L184.4 324.425Z" fill="url(#paint2_linear_808_272)"/>
<path style="mix-blend-mode:soft-light" d="M238 293.425L213 307.925C191 294.025 168 279.525 143.9 264.325C141.9 263.025 140.4 261.325 139.4 259.125C138.8 257.825 138.5 256.325 138.5 254.925L140.1 217.225L140.9 197.725C147 200.325 153 203.225 158.7 206.425C158.4 212.325 158.8 218.025 160.1 223.625C160.9 227.225 162 230.625 163.5 234.125C174.6 260.325 200.5 274.725 227 272.425C231.1 279.125 234.7 286.125 237.9 293.425H238Z" fill="url(#paint3_linear_808_272)"/>
<path style="mix-blend-mode:soft-light" d="M175.6 126.425C168.1 125.525 160.7 124.225 153.4 122.525C152.4 118.925 151.1 115.425 149.6 112.225C145.9 104.225 140.8 97.3246 134.3 91.6246C123 81.6246 109.3 76.4246 95.5 75.8246L73.6 53.4246L80.9 49.2246C99.6 51.4246 118.9 53.6246 138.9 55.9246C141.3 56.2246 143.4 57.1246 145.2 58.6246C146.3 59.5246 147.2 60.7246 147.8 62.0246L168.2 109.525L169.8 113.325L171.2 116.625L175.5 126.525L175.6 126.425Z" fill="url(#paint4_linear_808_272)"/>
<path style="mix-blend-mode:soft-light" d="M231.7 80.9252C231.7 82.4252 231.3 83.8252 230.6 85.1252L208.3 126.725L208 127.325C204.3 127.525 200.5 127.625 196.7 127.625C192.9 127.625 189.9 127.625 186.6 127.325C189.3 123.525 191.6 119.625 193.4 115.725C196.6 108.725 198.5 101.325 198.9 93.7252C198.9 93.5252 198.9 93.3252 198.9 93.0252C200.6 59.0252 175.7 30.9252 142.7 27.1252C136.1 26.3252 129.5 25.6252 123 24.8252L164.1 1.0252C165.9 -0.0748047 168.2 -0.0748047 170.1 1.0252L191.6 13.4252C203.8 32.9252 216.5 53.2252 229.7 74.3252C231 76.3252 231.6 78.6252 231.6 80.9252H231.7Z" fill="url(#paint5_linear_808_272)"/>
<path style="mix-blend-mode:soft-light" d="M300.6 76.2252C297.7 84.5252 294.7 92.9252 291.7 101.525C281.8 107.425 271.3 112.525 260.2 116.525C267.4 98.3252 265.8 77.2252 254.8 59.4252C251.6 54.3252 248.5 49.3252 245.4 44.3252L300.6 76.2252Z" fill="url(#paint6_linear_808_272)"/>
<path style="mix-blend-mode:soft-light" d="M186.2 180.525C193.4 190.725 201.8 198.325 211.7 203.125C207.4 208.425 202.1 212.925 196.2 216.325L164 188.325C163 187.425 162.3 187.625 161.9 188.925C160.1 194.925 159.1 200.725 158.8 206.325C158.5 212.225 158.9 217.925 160.2 223.525C153 222.625 146.3 220.425 140.2 217.125L141 197.625L141.9 176.425C141.9 175.725 141.8 175.325 141.5 175.125C141.2 174.925 140.7 174.925 140.1 175.125C139.9 175.125 139.8 175.225 139.6 175.325C130.9 178.925 123.5 183.625 117.5 189.325C116.9 189.925 116.2 190.525 115.6 191.125C115.2 190.225 114.8 189.425 114.4 188.525C112.2 183.225 110.7 177.425 110.2 171.425L118.8 165.125L121.8 162.925L137.3 151.625C137.4 151.625 137.5 151.425 137.6 151.325C137.8 151.125 137.9 150.925 138 150.725C138.1 150.325 137.8 149.825 137.1 149.525C130 145.525 122.9 142.825 115.8 141.425C118.7 135.525 122.6 130.125 127.3 125.625L153.7 132.825C154.2 132.925 154.6 133.025 154.8 132.825C154.8 132.825 154.9 132.825 155 132.725C155.2 132.425 155.3 132.025 155.2 131.425C154.7 128.325 154 125.325 153.2 122.525C152.2 118.925 150.9 115.425 149.4 112.225C155 110.425 160.9 109.425 167.1 109.425C173.3 109.425 167.7 109.425 168 109.425L169.6 113.225L171 116.525L175.3 126.425L178.2 133.125L178.6 134.025C178.6 134.225 178.8 134.425 178.9 134.525C179 134.725 179.1 134.825 179.2 134.925C179.6 135.125 180.1 134.925 180.6 134.325C182.7 132.025 184.6 129.725 186.3 127.325C189 123.525 191.3 119.625 193.1 115.725C198.6 118.525 203.7 122.325 208 126.725L207.7 127.325L202.2 137.625L193.3 154.325C193.2 154.525 193.1 154.725 193 154.925C192.8 155.725 193.2 156.125 194.3 156.225C204.6 156.825 214 155.625 222.5 152.625C223.7 157.125 224.3 161.925 224.3 166.825C224.3 171.725 224.3 170.025 224.1 171.625L186.7 178.525C185.4 178.725 185.1 179.425 185.9 180.525H186.2Z" fill="url(#paint7_linear_808_272)"/>
<defs>
<linearGradient id="paint0_linear_808_272" x1="167.4" y1="24.625" x2="167.4" y2="245.425" gradientUnits="userSpaceOnUse">
<stop stop-color="#27E6D6"/>
<stop offset="1" stop-color="#3E48CC"/>
</linearGradient>
<linearGradient id="paint1_linear_808_272" x1="34.6" y1="205.225" x2="34.6" y2="247.725" gradientUnits="userSpaceOnUse">
<stop stop-color="#27E6D6"/>
<stop offset="1" stop-color="#3E48CC"/>
</linearGradient>
<linearGradient id="paint2_linear_808_272" x1="127.2" y1="207.225" x2="127.2" y2="297.425" gradientUnits="userSpaceOnUse">
<stop stop-color="#27E6D6"/>
<stop offset="1" stop-color="#3E48CC"/>
</linearGradient>
<linearGradient id="paint3_linear_808_272" x1="188.3" y1="205.825" x2="188.3" y2="278.825" gradientUnits="userSpaceOnUse">
<stop stop-color="#27E6D6"/>
<stop offset="1" stop-color="#3E48CC"/>
</linearGradient>
<linearGradient id="paint4_linear_808_272" x1="124.6" y1="54.8246" x2="124.6" y2="106.025" gradientUnits="userSpaceOnUse">
<stop stop-color="#27E6D6"/>
<stop offset="1" stop-color="#3E48CC"/>
</linearGradient>
<linearGradient id="paint5_linear_808_272" x1="177.4" y1="9.52519" x2="177.4" y2="94.0252" gradientUnits="userSpaceOnUse">
<stop stop-color="#27E6D6"/>
<stop offset="1" stop-color="#3E48CC"/>
</linearGradient>
<linearGradient id="paint6_linear_808_272" x1="273" y1="49.6252" x2="273" y2="97.4252" gradientUnits="userSpaceOnUse">
<stop stop-color="#27E6D6"/>
<stop offset="1" stop-color="#3E48CC"/>
</linearGradient>
<linearGradient id="paint7_linear_808_272" x1="167.5" y1="117.825" x2="167.5" y2="193.525" gradientUnits="userSpaceOnUse">
<stop stop-color="#27E6D6"/>
<stop offset="1" stop-color="#3E48CC"/>
</linearGradient>
</defs>
</svg>
